<svg width="28" height="27" viewBox="0 0 28 27" fill="none" xmlns="http://www.w3.org/2000/svg">
<path d="M13.9418 20.25C14.3502 20.25 14.6955 20.1139 14.9778 19.8416C15.2602 19.5694 15.4009 19.2367 15.4002 18.8438C15.4002 18.45 15.2594 18.117 14.9778 17.8448C14.6963 17.5725 14.3509 17.4368 13.9418 17.4375C13.5335 17.4375 13.1886 17.5736 12.907 17.8459C12.6254 18.1181 12.4843 18.4508 12.4835 18.8438C12.4835 19.2375 12.6247 19.5705 12.907 19.8428C13.1893 20.115 13.5343 20.2507 13.9418 20.25ZM14.0002 24.75C12.3863 24.75 10.8696 24.4545 9.45016 23.8635C8.03072 23.2725 6.796 22.4711 5.746 21.4594C4.696 20.4469 3.86494 19.2563 3.25283 17.8875C2.64072 16.5187 2.33427 15.0562 2.3335 13.5C2.3335 11.9438 2.63994 10.4813 3.25283 9.1125C3.86572 7.74375 4.69677 6.55313 5.746 5.54063C6.796 4.52813 8.03072 3.72675 9.45016 3.1365C10.8696 2.54625 12.3863 2.25075 14.0002 2.25C15.6141 2.25 17.1307 2.5455 18.5502 3.1365C19.9696 3.7275 21.2043 4.52888 22.2543 5.54063C23.3043 6.55313 24.1358 7.74375 24.7487 9.1125C25.3615 10.4813 25.6676 11.9438 25.6668 13.5C25.6668 15.0562 25.3604 16.5187 24.7475 17.8875C24.1346 19.2563 23.3036 20.4469 22.2543 21.4594C21.2043 22.4719 19.9696 23.2736 18.5502 23.8646C17.1307 24.4556 15.6141 24.7507 14.0002 24.75ZM14.0002 22.5C16.6057 22.5 18.8127 21.6281 20.621 19.8844C22.4293 18.1406 23.3335 16.0125 23.3335 13.5C23.3335 10.9875 22.4293 8.85937 20.621 7.11562C18.8127 5.37187 16.6057 4.5 14.0002 4.5C11.3946 4.5 9.18766 5.37187 7.37933 7.11562C5.571 8.85937 4.66683 10.9875 4.66683 13.5C4.66683 16.0125 5.571 18.1406 7.37933 19.8844C9.18766 21.6281 11.3946 22.5 14.0002 22.5ZM14.1168 8.6625C14.6029 8.6625 15.0261 8.8125 15.3862 9.1125C15.7463 9.4125 15.9259 9.7875 15.9252 10.2375C15.9252 10.65 15.7941 11.0156 15.532 11.3344C15.2699 11.6531 14.9732 11.9531 14.6418 12.2344C14.1946 12.6094 13.8011 13.0219 13.4612 13.4719C13.1213 13.9219 12.9509 14.4281 12.9502 14.9906C12.9502 15.2531 13.0524 15.4736 13.257 15.6521C13.4616 15.8306 13.6996 15.9195 13.971 15.9187C14.2627 15.9187 14.5108 15.825 14.7153 15.6375C14.9199 15.45 15.0509 15.2156 15.1085 14.9344C15.1863 14.5406 15.3613 14.1889 15.6335 13.8791C15.9057 13.5694 16.1974 13.2743 16.5085 12.9938C16.9557 12.5813 17.3399 12.1313 17.6612 11.6438C17.9824 11.1562 18.1426 10.6125 18.1418 10.0125C18.1418 9.05625 17.7382 8.27363 16.9308 7.66463C16.1235 7.05563 15.1855 6.75075 14.1168 6.75C13.3779 6.75 12.6733 6.9 12.0028 7.2C11.3324 7.5 10.8218 7.95937 10.471 8.57812C10.3349 8.80312 10.2909 9.04237 10.3392 9.29587C10.3874 9.54937 10.5188 9.74137 10.7335 9.87187C11.0057 10.0219 11.2877 10.0687 11.5793 10.0125C11.871 9.95625 12.1141 9.79688 12.3085 9.53438C12.5224 9.25313 12.7899 9.0375 13.1112 8.8875C13.4324 8.7375 13.7676 8.6625 14.1168 8.6625Z" fill="#A9A9A9"/>
</svg>
