<svg width="27" height="27" viewBox="0 0 27 27" fill="none" xmlns="http://www.w3.org/2000/svg">
<path d="M13.5002 4.50004C14.6936 4.50004 15.8382 4.97415 16.6821 5.81806C17.5261 6.66197 18.0002 7.80657 18.0002 9.00004C18.0002 10.1935 17.5261 11.3381 16.6821 12.182C15.8382 13.0259 14.6936 13.5 13.5002 13.5C12.3067 13.5 11.1621 13.0259 10.3182 12.182C9.47427 11.3381 9.00016 10.1935 9.00016 9.00004C9.00016 7.80657 9.47427 6.66197 10.3182 5.81806C11.1621 4.97415 12.3067 4.50004 13.5002 4.50004ZM13.5002 15.75C18.4727 15.75 22.5002 17.7638 22.5002 20.25V22.5H4.50016V20.25C4.50016 17.7638 8.52766 15.75 13.5002 15.75Z" fill="#A9A9A9"/>
</svg>
