<svg width="36" height="36" viewBox="0 0 36 36" fill="none" xmlns="http://www.w3.org/2000/svg">
<path d="M30.6785 15.1875H29.4376V13.5945C29.4376 13.2961 29.3191 13.01 29.1081 12.799C28.8971 12.588 28.611 12.4695 28.3126 12.4695H5.906C5.60763 12.4695 5.32148 12.588 5.1105 12.799C4.89952 13.01 4.781 13.2961 4.781 13.5945V22.4055C4.781 22.7039 4.89952 22.99 5.1105 23.201C5.32148 23.412 5.60763 23.5305 5.906 23.5305H28.3126C28.611 23.5305 28.8971 23.412 29.1081 23.201C29.3191 22.99 29.4376 22.7039 29.4376 22.4055V20.8125H30.6796C30.9789 20.8125 31.2196 20.3085 31.2196 19.6875V16.3125C31.2196 15.6915 30.9777 15.1875 30.6785 15.1875ZM20.8404 18.9472L13.2657 22.734L17.0525 18.9472L15.1591 17.0527L22.7337 13.266L18.947 17.0527L20.8404 18.9472Z" fill="black"/>
</svg>
