<svg width="27" height="27" viewBox="0 0 27 27" fill="none" xmlns="http://www.w3.org/2000/svg">
<path d="M4.49967 4.50004H11.2497V11.25H4.49967V4.50004ZM15.7497 4.50004H22.4997V11.25H15.7497V4.50004ZM4.49967 15.75H11.2497V22.5H4.49967V15.75ZM15.7497 19.125C15.7497 20.0201 16.1053 20.8786 16.7382 21.5115C17.3711 22.1445 18.2296 22.5 19.1247 22.5C20.0198 22.5 20.8782 22.1445 21.5112 21.5115C22.1441 20.8786 22.4997 20.0201 22.4997 19.125C22.4997 18.2299 22.1441 17.3715 21.5112 16.7386C20.8782 16.1056 20.0198 15.75 19.1247 15.75C18.2296 15.75 17.3711 16.1056 16.7382 16.7386C16.1053 17.3715 15.7497 18.2299 15.7497 19.125Z" stroke="#A9A9A9" stroke-width="2.24162" stroke-linecap="round" stroke-linejoin="round"/>
</svg>
